Coordinates
version=1
nRows=8
nColumns=28
inDegrees=yes

Units are S.I. units (second, meters, Newtons, ...)
Angles are in degrees.

endheader
time	pelvis_tilt	pelvis_list	pelvis_rotation	pelvis_tx	pelvis_ty	pelvis_tz	hip_flexion_r	hip_adduction_r	hip_rotation_r	knee_angle_r	ankle_angle_r	subtalar_angle_r	mtp_angle_r	hip_flexion_l	hip_adduction_l	hip_rotation_l	knee_angle_l	socket_flexion	socket_adduction	socket_rotation	socket_tx	socket_ty	socket_tz	foot_flex	lumbar_extension	lumbar_bending	lumbar_rotation
      0.31666667	      0.71467131	     -1.74178567	     -4.08150247	     -0.45458929	      1.02792160	      0.29551139	     15.33930612	      2.09910064	     -1.64491038	    -65.26970453	     10.06957757	    -13.37661153	     -3.29014235	      0.66240796	     -3.03257007	     -9.08458001	     -1.29556854	      0.47381095	      4.24860262	     19.21811524	     -0.00191940	     -0.00689059	     -0.00114667	     -0.91246793	    -10.58012408	     -1.68739403	      4.41211425
      0.32083333	      0.84298723	     -2.21422706	     -3.84587746	     -0.44855218	      1.02853237	      0.29512882	     15.54769440	      2.54937353	     -1.96313151	    -64.69014299	     10.91882887	    -12.68819333	     -3.42633003	     -0.21599532	     -3.60992124	     -8.91166247	     -1.05279966	      0.22038044	      4.36457066	     19.37501178	     -0.00483420	     -0.00725684	     -0.00179103	     -0.75807767	    -10.65269901	     -1.05073596	      4.07501653
      0.32500000	      0.90589219	     -2.21587567	     -3.72924457	     -0.44370861	      1.02908847	      0.29509711	     16.06790391	      2.57456767	     -2.00104750	    -64.30439434	     10.97921858	    -12.68086044	     -3.43208055	     -0.45847669	     -3.60450386	     -8.93550216	     -1.10311754	      0.25154229	      4.39209890	     19.40447821	     -0.00374712	     -0.00685174	     -0.00204156	     -0.68749149	    -10.82630005	     -1.05736915	      4.06767286
      0.32916667	      0.89389829	     -2.35813709	     -3.50898814	     -0.43775408	      1.02961991	      0.29478363	     16.44303755	      2.70423610	     -2.17599641	    -63.65293131	     11.33210116	    -12.57578371	     -3.44197893	     -0.99060426	     -3.70545250	     -8.88392593	     -0.96175306	      0.15133831	      4.35307164	     19.63574684	     -0.00506143	     -0.00657717	     -0.00148882	     -0.31558679	    -10.70087324	     -0.87764323	      3.99588265
      0.33333333	      1.07081003	     -2.87360651	     -3.31662123	     -0.43216259	      1.03001129	      0.29441292	     16.66323906	      3.15359431	     -2.56648806	    -63.07852579	     12.08342749	    -11.89437653	     -3.56337059	     -1.79154677	     -4.37856896	     -8.79917504	     -0.78024155	     -0.06993246	      4.51602156	     19.75188891	     -0.00720084	     -0.00718178	     -0.00274202	     -0.33500579	    -10.92696407	     -0.14781314	      3.63503356
      0.33750000	      1.12471935	     -2.85937209	     -3.20221935	     -0.42739456	      1.03047848	      0.29444404	     17.15321375	      3.17233189	     -2.58867746	    -62.57624888	     12.14662634	    -11.88519112	     -3.57358952	     -2.01518862	     -4.37914687	     -8.82701585	     -0.83529239	     -0.03931633	      4.55637511	     19.76909511	     -0.00616897	     -0.00677641	     -0.00314062	     -0.28613888	    -11.10186113	     -0.18254789	      3.62312897
      0.34166667	      1.14072131	     -2.93556381	     -3.00657948	     -0.42156618	      1.03111365	      0.29436582	     17.43353856	      3.26037671	     -2.67708593	    -61.72146032	     12.40196751	    -11.83619790	     -3.60261337	     -2.43400191	     -4.45228830	     -8.78609072	     -0.77146897	     -0.09173536	      4.55896875	     19.93918867	     -0.00637347	     -0.00623079	     -0.00299087	     -0.03989682	    -10.98392999	     -0.12956649	      3.56391262
      0.34583333	      1.50272302	     -3.66874162	     -2.66066265	     -0.41581434	      1.03176011	      0.29393568	     17.27697048	      3.94371817	     -3.18922439	    -60.80899315	     13.16545033	    -11.16820782	     -4.01490459	     -3.48623091	     -5.51657537	     -8.68067490	     -0.57262472	     -0.38609762	      4.88177313	     20.07242399	     -0.00931834	     -0.00686633	     -0.00559384	     -0.01477496	    -11.39909580	      0.85425777	      3.02530529
